<svg id="Objects" xmlns="http://www.w3.org/2000/svg" xmlns:xlink="http://www.w3.org/1999/xlink" viewBox="0 0 683.41 181.92"><defs><style>.cls-1{fill:url(#linear-gradient);}.cls-2{fill:url(#linear-gradient-2);}.cls-3{fill:#231f20;opacity:0.4;}.cls-4{font-size:80px;fill:#00a14b;font-family:Tahoma-Bold, Tahoma;font-weight:700;}.cls-5{fill:#000;}</style><linearGradient id="linear-gradient" x1="111.84" y1="365.51" x2="198.79" y2="452.46" gradientUnits="userSpaceOnUse"><stop offset="0" stop-color="#8dc63f"/><stop offset="1" stop-color="#39b54a"/></linearGradient><linearGradient id="linear-gradient-2" x1="57.92" y1="358.49" x2="223.73" y2="358.49" gradientUnits="userSpaceOnUse"><stop offset="0" stop-color="#fff" stop-opacity="0.6"/><stop offset="1" stop-color="#fff" stop-opacity="0"/></linearGradient></defs><path class="cls-1" d="M143.91,309.5A91,91,0,0,0,60.58,437.07c18.43,39.52,72.84-3.1,85.68-36.62-33,52.14-99.67,40.3-68.28,7.14,28.32-27.21,78.25-31.14,88.64-60.15,12.76,27.52,24.12,104.81-19.36,144a91,91,0,0,0-3.35-181.91Z" transform="translate(-52.92 -309.5)"/><path class="cls-2" d="M147.26,326.35a90.35,90.35,0,0,1,76.47,42.15,86,86,0,0,0-165.81,32c0,.66,0,1.33,0,2A90.47,90.47,0,0,1,147.26,326.35Z" transform="translate(-52.92 -309.5)"/><path class="cls-3" d="M166.62,347.44c12.76,27.52,24.12,104.81-19.36,144a91,91,0,0,0,86.55-76.78Z" transform="translate(-52.92 -309.5)"/><text class="cls-4" transform="translate(216.01 108.74)">AGRO<tspan class="cls-5" x="234.06" y="0">MART</tspan></text></svg>